<svg width="400" height="400" viewBox="0 0 400 400" xmlns="http://www.w3.org/2000/svg">
  <rect width="400" height="400" fill="#F3E9DA"/>
  <circle cx="200" cy="200" r="170" fill="#F1E4D3"/>
  <ellipse cx="200" cy="230" rx="110" ry="130" fill="#E9D7C3"/>
  <path d="M120 190 Q200 140 280 190 L280 260 Q200 330 120 260 Z" fill="#EBD9C2"/>
  <!-- T-zone shine (oily center) -->
  <path d="M180 155 Q200 150 220 155 L215 260 Q200 275 185 260 Z" fill="#DFE6D2" opacity="0.7"/>
  <ellipse cx="200" cy="200" rx="16" ry="30" fill="#FDFBF8" opacity="0.7"/>
  <!-- drier cheeks -->
  <g stroke="#C9A679" stroke-width="2" stroke-linecap="round" opacity="0.7">
    <path d="M140 230 l8 -6"/>
    <path d="M150 260 l8 -6"/>
    <path d="M260 230 l-8 -6"/>
    <path d="M250 260 l-8 -6"/>
  </g>
  <circle cx="160" cy="210" r="8" fill="#6F4527"/>
  <circle cx="240" cy="210" r="8" fill="#6F4527"/>
  <path d="M185 236 Q200 244 215 236" stroke="#8A5A36" stroke-width="4" fill="none" stroke-linecap="round"/>
  <path d="M155 277 Q200 296 245 277" stroke="#B98D5F" stroke-width="5" fill="none" stroke-linecap="round"/>
  <text x="200" y="385" text-anchor="middle" font-family="Georgia, serif" font-size="22" fill="#55361F">Combination Skin</text>
</svg>
